# xmcd CD database file generated by OrangeCD 5.2
#
# Track frame offsets:
#	150
#	11284
#	19684
#	63018
#	68958
#	74230
#	92146
#	102976
#	112607
#	118435
#	131262
#	145774
#	181143
#	195543
#	208411
#	214604
#	229156
#	240249
#	250149
#	262108
#	278541
#	287349
#	297281
#	305465
#
# Disc length: 4223 seconds
#
# Revision: 0
# Processed by: cddbd v1.5.1PL0 Copyright (c) Steve Scherf et al.
# Submitted via: OrangeCD 5.2
#
DISCID=5c107d18
DTITLE=Johnny Cash - The ABC Show Series Volume 3
DYEAR=2000
DGENRE=Country
TTITLE0=I Got Stripes/Doing My Time
TTITLE1=Johnny Cash and Neil Diamond - New York City Boy/Where The Old River Flow
TTITLE1=s
TTITLE2=Ride This Train: Mississippi Delta Land-Detroit City- Uncloudy Day-No S
TTITLE2=etting Sun
TTITLE3=Johnny Cash and Ray Charles - Blues Piece/Wrinkled, Crinkled, Wadded Doll
TTITLE3=ar Bill
TTITLE4=Johnny Cash and Ray Charles - Busted
TTITLE5=He Turned The Water Into Wine
TTITLE6=Rock Island Line
TTITLE7=Flesh And Blood
TTITLE8=Johnny Cash and Statler Brothers - Roll In My Sweet Baby's Arms
TTITLE9=Opening/Cry, Cry, Cry/Get Rhythm
TTITLE10=Johnny Cash and Vicky Carr - Scarborough Fair/I Never Will Marry
TTITLE11=Ride This Train: Sixteen Tons/Dark As A Dungeon/Loading Coal
TTITLE12=Johnny Cash and Jimmy Rogers - Danny Boy
TTITLE13=Cocaine Blues
TTITLE14=What Do I Care
TTITLE15=Johnny Cash and June Carter Cash - Cause I Love You
TTITLE16=Opening/The One On The Right Is On The Left
TTITLE17=Johnny Cash and Linda Rondstadt - Walk A Mile In My Shoes
TTITLE18=Johnny Cash and Hank Williams Jr. - Waitin'
TTITLE19=Johnny Cash and O.C. Smith - Yesterday/I Still Miss Someone
TTITLE20=So Doggone Lonesome
TTITLE21=You Beat All I Ever Saw
TTITLE22=Jesus Was A Soul Man
TTITLE23=Johnny Cash and June Carter Cash - If I Were A Carpenter
EXTD=
EXTT0=
EXTT1=
EXTT2=
EXTT3=
EXTT4=
EXTT5=
EXTT6=
EXTT7=
EXTT8=
EXTT9=
EXTT10=
EXTT11=
EXTT12=
EXTT13=
EXTT14=
EXTT15=
EXTT16=
EXTT17=
EXTT18=
EXTT19=
EXTT20=
EXTT21=
EXTT22=
EXTT23=
PLAYORDER=
